<svg width="38" height="28" viewBox="0 0 38 28" fill="none" xmlns="http://www.w3.org/2000/svg">
<path fill-rule="evenodd" clip-rule="evenodd" d="M32.1703 1.0059L19.0001 0.708008L5.82997 1.0059C3.38951 1.06111 1.32316 2.82224 0.8819 5.22311C-0.184592 11.0258 -0.184592 16.9743 0.8819 22.7769C1.32316 25.1778 3.38951 26.9389 5.82997 26.9941L19.0001 27.292L32.1703 26.9941C34.6107 26.9389 36.6771 25.1778 37.1184 22.7769C38.1848 16.9743 38.1848 11.0258 37.1184 5.22311C36.6771 2.82224 34.6107 1.0611 32.1703 1.0059ZM5.89216 3.7552L19.0001 3.45871L32.1081 3.7552C33.2452 3.78092 34.2081 4.60153 34.4137 5.72021C34.6947 7.24919 34.8972 8.7889 35.0212 10.3333H2.97903C3.10306 8.7889 3.30558 7.24919 3.5866 5.72021C3.7922 4.60152 4.75502 3.78092 5.89216 3.7552ZM2.83203 14C2.83203 16.7714 3.08355 19.5428 3.5866 22.2798C3.7922 23.3985 4.75502 24.2191 5.89216 24.2448L19.0001 24.5413L32.1081 24.2448C33.2452 24.2191 34.2081 23.3985 34.4137 22.2798C34.9167 19.5428 35.1682 16.7714 35.1682 14H2.83203Z" fill="white"/>
</svg>
