<svg width="37" height="35" viewBox="0 0 37 35" fill="none" xmlns="http://www.w3.org/2000/svg">
<path fill-rule="evenodd" clip-rule="evenodd" d="M33.1055 4.62533H7.7824L5.61874 0.747086C5.37588 0.311774 4.91644 0.0419922 4.41797 0.0419922H1.66797C0.908577 0.0419922 0.292969 0.657601 0.292969 1.41699C0.292969 2.17638 0.908577 2.79199 1.66797 2.79199H3.61057L5.74584 6.61935L10.6703 17.5153L10.6754 17.5264L11.1091 18.4861L6.16489 23.7599C5.80939 24.1391 5.6981 24.6864 5.87728 25.1743C6.05645 25.6622 6.49545 26.0074 7.01188 26.0664L11.5185 26.5815C17.1554 27.2257 22.8473 27.2257 28.4842 26.5815L32.9908 26.0664C33.7453 25.9802 34.287 25.2987 34.2008 24.5442C34.1146 23.7897 33.433 23.248 32.6785 23.3342L28.172 23.8493C22.7426 24.4698 17.2601 24.4698 11.8307 23.8493L10.0423 23.6449L13.6711 19.7741C13.7062 19.7366 13.7388 19.6978 13.7689 19.6576L15.1491 19.8372C17.0831 20.0889 19.0381 20.1382 20.9824 19.9844C25.5171 19.6258 29.7198 17.468 32.654 13.992L33.7138 12.7365C33.7494 12.6943 33.7824 12.65 33.8127 12.6039L35.7879 9.59382C37.1879 7.46026 35.6574 4.62533 33.1055 4.62533ZM13.8711 16.8977C13.5679 16.8583 13.3064 16.6657 13.1787 16.3881L13.1763 16.3827L9.10533 7.37533H33.1055C33.47 7.37533 33.6887 7.78032 33.4887 8.08511L31.5589 11.0259L30.5526 12.2181C28.0922 15.1329 24.568 16.9422 20.7655 17.243C19.0118 17.3817 17.2484 17.3372 15.5039 17.1102L13.8711 16.8977Z" fill="white"/>
<path d="M9.91797 28.917C8.39919 28.917 7.16797 30.1482 7.16797 31.667C7.16797 33.1858 8.39919 34.417 9.91797 34.417C11.4368 34.417 12.668 33.1858 12.668 31.667C12.668 30.1482 11.4368 28.917 9.91797 28.917Z" fill="white"/>
<path d="M27.3346 31.667C27.3346 30.1482 28.5659 28.917 30.0846 28.917C31.6034 28.917 32.8346 30.1482 32.8346 31.667C32.8346 33.1858 31.6034 34.417 30.0846 34.417C28.5659 34.417 27.3346 33.1858 27.3346 31.667Z" fill="white"/>
</svg>
