<svg width="28" height="36" viewBox="0 0 28 36" fill="none" xmlns="http://www.w3.org/2000/svg">
<path fill-rule="evenodd" clip-rule="evenodd" d="M17.9599 0.234919C18.4671 0.450849 18.7963 0.948801 18.7963 1.50003V14.33H26.0013C26.4903 14.33 26.9424 14.5897 27.1889 15.012C27.4353 15.4343 27.439 15.9558 27.1984 16.3815L26.2963 17.978C22.8751 24.0329 18.512 29.5046 13.3707 34.188L11.9123 35.5165C11.5097 35.8832 10.9287 35.9778 10.4307 35.7578C9.93261 35.5377 9.6113 35.0445 9.6113 34.5V21.7788H2.16797C1.40858 21.7788 0.792969 21.1632 0.792969 20.4038C0.792969 20.1578 0.857549 19.927 0.970677 19.7272C4.19512 13.7662 8.32339 8.34051 13.2087 3.6431L16.4683 0.508889C16.8656 0.126825 17.4527 0.0189894 17.9599 0.234919ZM4.52303 19.0288H10.9863C11.7457 19.0288 12.3613 19.6444 12.3613 20.4038V31.3733C16.7954 27.1831 20.596 22.3682 23.6425 17.08H17.4213C16.6619 17.08 16.0463 16.4644 16.0463 15.705V4.72966L15.1147 5.62539C10.9883 9.59311 7.42563 14.1031 4.52303 19.0288Z" fill="white"/>
</svg>
