<svg width="201" height="200" viewBox="0 0 201 200" fill="none" xmlns="http://www.w3.org/2000/svg">
<g opacity="0.2">
<mask id="path-1-inside-1_980_1017" fill="white">
<path d="M200.5 100C200.5 155.228 155.728 200 100.5 200C45.2715 200 0.5 155.228 0.5 100C0.5 44.7715 45.2715 0 100.5 0C155.728 0 200.5 44.7715 200.5 100ZM13.5 100C13.5 148.049 52.4512 187 100.5 187C148.549 187 187.5 148.049 187.5 100C187.5 51.9512 148.549 13 100.5 13C52.4512 13 13.5 51.9512 13.5 100Z"/>
</mask>
<path d="M200.5 100C200.5 155.228 155.728 200 100.5 200C45.2715 200 0.5 155.228 0.5 100C0.5 44.7715 45.2715 0 100.5 0C155.728 0 200.5 44.7715 200.5 100ZM13.5 100C13.5 148.049 52.4512 187 100.5 187C148.549 187 187.5 148.049 187.5 100C187.5 51.9512 148.549 13 100.5 13C52.4512 13 13.5 51.9512 13.5 100Z" stroke="white" stroke-width="32" stroke-linecap="round" mask="url(#path-1-inside-1_980_1017)"/>
</g>
<mask id="path-2-inside-2_980_1017" fill="white">
<path d="M194 100C197.59 100 200.522 102.913 200.289 106.496C199.356 120.822 195.348 134.806 188.506 147.486C180.634 162.075 169.258 174.479 155.402 183.581C141.546 192.682 125.645 198.197 109.129 199.627C92.6125 201.057 75.9998 198.359 60.7852 191.775C45.5707 185.192 32.2317 174.928 21.9683 161.909C11.705 148.89 4.83931 133.524 1.98907 117.193C-0.861174 100.862 0.393423 84.0782 5.63998 68.3523C10.1995 54.6856 17.6498 42.1903 27.4548 31.7036C29.9065 29.0814 34.0374 29.2245 36.4948 31.8414V31.8414C38.9523 34.4583 38.8027 38.5563 36.3765 41.2022C28.1292 50.1965 21.8491 60.8446 17.9718 72.4665C13.4073 86.148 12.3158 100.75 14.7955 114.958C17.2752 129.166 23.2483 142.535 32.1774 153.861C41.1065 165.188 52.7115 174.117 65.9481 179.845C79.1848 185.573 93.6378 187.92 108.007 186.676C122.376 185.431 136.21 180.634 148.265 172.715C160.32 164.797 170.217 154.006 177.066 141.313C182.883 130.53 186.346 118.663 187.257 106.494C187.525 102.914 190.41 100 194 100V100Z"/>
</mask>
<path d="M194 100C197.59 100 200.522 102.913 200.289 106.496C199.356 120.822 195.348 134.806 188.506 147.486C180.634 162.075 169.258 174.479 155.402 183.581C141.546 192.682 125.645 198.197 109.129 199.627C92.6125 201.057 75.9998 198.359 60.7852 191.775C45.5707 185.192 32.2317 174.928 21.9683 161.909C11.705 148.89 4.83931 133.524 1.98907 117.193C-0.861174 100.862 0.393423 84.0782 5.63998 68.3523C10.1995 54.6856 17.6498 42.1903 27.4548 31.7036C29.9065 29.0814 34.0374 29.2245 36.4948 31.8414V31.8414C38.9523 34.4583 38.8027 38.5563 36.3765 41.2022C28.1292 50.1965 21.8491 60.8446 17.9718 72.4665C13.4073 86.148 12.3158 100.75 14.7955 114.958C17.2752 129.166 23.2483 142.535 32.1774 153.861C41.1065 165.188 52.7115 174.117 65.9481 179.845C79.1848 185.573 93.6378 187.92 108.007 186.676C122.376 185.431 136.21 180.634 148.265 172.715C160.32 164.797 170.217 154.006 177.066 141.313C182.883 130.53 186.346 118.663 187.257 106.494C187.525 102.914 190.41 100 194 100V100Z" stroke="#30C79F" stroke-width="32" stroke-linecap="round" mask="url(#path-2-inside-2_980_1017)"/>
<path d="M50.9965 118.385L65.2525 86.4708H46.6225V80.5848H72.3805V85.4988L58.1785 118.385H50.9965ZM91.731 119.033C88.239 119.033 85.251 118.223 82.767 116.603C80.283 114.947 78.357 112.661 76.989 109.745C75.657 106.793 74.991 103.373 74.991 99.4848C74.991 95.6328 75.657 92.2308 76.989 89.2788C78.357 86.3268 80.283 84.0408 82.767 82.4208C85.251 80.7648 88.239 79.9368 91.731 79.9368C95.223 79.9368 98.211 80.7648 100.695 82.4208C103.179 84.0408 105.087 86.3268 106.419 89.2788C107.787 92.2308 108.471 95.6328 108.471 99.4848C108.471 103.373 107.787 106.793 106.419 109.745C105.087 112.661 103.179 114.947 100.695 116.603C98.211 118.223 95.223 119.033 91.731 119.033ZM91.731 112.823C94.575 112.823 96.897 111.635 98.697 109.259C100.497 106.883 101.397 103.625 101.397 99.4848C101.397 95.3448 100.497 92.0868 98.697 89.7108C96.897 87.3348 94.575 86.1468 91.731 86.1468C88.851 86.1468 86.511 87.3348 84.711 89.7108C82.947 92.0868 82.065 95.3448 82.065 99.4848C82.065 103.625 82.947 106.883 84.711 109.259C86.511 111.635 88.851 112.823 91.731 112.823ZM121.267 99.1608C119.539 99.1608 117.973 98.7828 116.569 98.0268C115.165 97.2348 114.049 96.1188 113.221 94.6788C112.393 93.2388 111.979 91.5288 111.979 89.5488C111.979 87.5688 112.393 85.8588 113.221 84.4188C114.049 82.9788 115.165 81.8808 116.569 81.1248C117.973 80.3328 119.557 79.9368 121.321 79.9368C123.049 79.9368 124.597 80.3328 125.965 81.1248C127.369 81.8808 128.485 82.9788 129.313 84.4188C130.141 85.8588 130.555 87.5688 130.555 89.5488C130.555 91.5288 130.141 93.2388 129.313 94.6788C128.485 96.1188 127.369 97.2348 125.965 98.0268C124.561 98.7828 122.995 99.1608 121.267 99.1608ZM119.215 118.385L140.545 80.5848H147.295L125.965 118.385H119.215ZM121.267 94.3548C122.311 94.3548 123.211 93.9588 123.967 93.1668C124.723 92.3388 125.101 91.1328 125.101 89.5488C125.101 87.9648 124.723 86.7588 123.967 85.9308C123.247 85.1028 122.347 84.6888 121.267 84.6888C120.187 84.6888 119.269 85.1028 118.513 85.9308C117.793 86.7588 117.433 87.9648 117.433 89.5488C117.433 91.1328 117.793 92.3388 118.513 93.1668C119.269 93.9588 120.187 94.3548 121.267 94.3548ZM145.459 119.033C143.731 119.033 142.165 118.655 140.761 117.899C139.357 117.107 138.241 115.991 137.413 114.551C136.585 113.111 136.171 111.401 136.171 109.421C136.171 107.441 136.585 105.749 137.413 104.345C138.241 102.905 139.357 101.807 140.761 101.051C142.165 100.259 143.749 99.8628 145.513 99.8628C147.241 99.8628 148.789 100.259 150.157 101.051C151.561 101.807 152.677 102.905 153.505 104.345C154.333 105.749 154.747 107.441 154.747 109.421C154.747 111.401 154.333 113.111 153.505 114.551C152.677 115.991 151.561 117.107 150.157 117.899C148.789 118.655 147.223 119.033 145.459 119.033ZM145.459 114.227C146.539 114.227 147.439 113.831 148.159 113.039C148.915 112.211 149.293 111.005 149.293 109.421C149.293 107.837 148.915 106.631 148.159 105.803C147.439 104.975 146.539 104.561 145.459 104.561C144.379 104.561 143.461 104.975 142.705 105.803C141.985 106.631 141.625 107.837 141.625 109.421C141.625 111.005 141.985 112.211 142.705 113.039C143.461 113.831 144.379 114.227 145.459 114.227Z" fill="#30C79F"/>
</svg>
