<svg width="201" height="200" viewBox="0 0 201 200" fill="none" xmlns="http://www.w3.org/2000/svg">
<path opacity="0.2" d="M200.5 100C200.5 155.228 155.728 200 100.5 200C45.2715 200 0.5 155.228 0.5 100C0.5 44.7715 45.2715 0 100.5 0C155.728 0 200.5 44.7715 200.5 100ZM13.5 100C13.5 148.049 52.4512 187 100.5 187C148.549 187 187.5 148.049 187.5 100C187.5 51.9512 148.549 13 100.5 13C52.4512 13 13.5 51.9512 13.5 100Z" fill="white"/>
<mask id="path-2-inside-1_980_1008" fill="white">
<path d="M194 100C197.59 100 200.522 102.913 200.289 106.496C198.943 127.173 191.2 146.983 178.05 163.135C163.528 180.972 143.302 193.258 120.779 197.922C98.2559 202.587 74.8137 199.344 54.4026 188.741C33.9914 178.139 17.8592 160.824 8.72454 139.715C-0.410144 118.606 -1.98885 94.9931 4.25447 72.856C10.4978 50.7188 24.1814 31.4106 42.9995 18.185C61.8175 4.9595 84.6194 -1.37475 107.563 0.249719C128.339 1.72075 148.081 9.63659 164.075 22.8105C166.846 25.0928 166.963 29.2245 164.505 31.8414V31.8414C162.048 34.4583 157.948 34.5661 155.155 32.3109C141.358 21.1698 124.437 14.477 106.645 13.2173C86.6839 11.804 66.8462 17.3148 50.4745 28.821C34.1029 40.3272 22.1981 57.1254 16.7664 76.3847C11.3347 95.644 12.7082 116.187 20.6554 134.552C28.6025 152.917 42.6375 167.981 60.3952 177.205C78.1529 186.429 98.5476 189.25 118.142 185.192C137.737 181.134 155.334 170.446 167.968 154.928C179.23 141.095 185.934 124.179 187.257 106.494C187.525 102.915 190.41 100 194 100V100Z"/>
</mask>
<path d="M194 100C197.59 100 200.522 102.913 200.289 106.496C198.943 127.173 191.2 146.983 178.05 163.135C163.528 180.972 143.302 193.258 120.779 197.922C98.2559 202.587 74.8137 199.344 54.4026 188.741C33.9914 178.139 17.8592 160.824 8.72454 139.715C-0.410144 118.606 -1.98885 94.9931 4.25447 72.856C10.4978 50.7188 24.1814 31.4106 42.9995 18.185C61.8175 4.9595 84.6194 -1.37475 107.563 0.249719C128.339 1.72075 148.081 9.63659 164.075 22.8105C166.846 25.0928 166.963 29.2245 164.505 31.8414V31.8414C162.048 34.4583 157.948 34.5661 155.155 32.3109C141.358 21.1698 124.437 14.477 106.645 13.2173C86.6839 11.804 66.8462 17.3148 50.4745 28.821C34.1029 40.3272 22.1981 57.1254 16.7664 76.3847C11.3347 95.644 12.7082 116.187 20.6554 134.552C28.6025 152.917 42.6375 167.981 60.3952 177.205C78.1529 186.429 98.5476 189.25 118.142 185.192C137.737 181.134 155.334 170.446 167.968 154.928C179.23 141.095 185.934 124.179 187.257 106.494C187.525 102.915 190.41 100 194 100V100Z" stroke="#9BF62D" stroke-width="32" stroke-linecap="round" mask="url(#path-2-inside-1_980_1008)"/>
<path d="M61.8581 119.033C59.2661 119.033 56.9261 118.583 54.8381 117.683C52.7501 116.747 51.0761 115.433 49.8161 113.741C48.5921 112.049 47.9801 110.087 47.9801 107.855C47.9801 105.551 48.5741 103.535 49.7621 101.807C50.9861 100.079 52.5881 98.8368 54.5681 98.0808C52.8401 97.3248 51.4721 96.2448 50.4641 94.8408C49.4561 93.4008 48.9521 91.7988 48.9521 90.0348C48.9521 88.2348 49.4381 86.5788 50.4101 85.0668C51.3821 83.5188 52.8221 82.2768 54.7301 81.3408C56.6741 80.4048 59.0501 79.9368 61.8581 79.9368C64.6661 79.9368 67.0241 80.4048 68.9321 81.3408C70.8401 82.2768 72.2801 83.5188 73.2521 85.0668C74.2241 86.5788 74.7101 88.2348 74.7101 90.0348C74.7101 91.7628 74.1881 93.3648 73.1441 94.8408C72.1361 96.2808 70.7861 97.3608 69.0941 98.0808C71.1101 98.8368 72.7121 100.079 73.9001 101.807C75.0881 103.535 75.6821 105.551 75.6821 107.855C75.6821 110.087 75.0701 112.049 73.8461 113.741C72.6221 115.433 70.9481 116.747 68.8241 117.683C66.7361 118.583 64.4141 119.033 61.8581 119.033ZM61.8581 96.0288C63.7301 96.0288 65.2061 95.5428 66.2861 94.5708C67.3661 93.5988 67.9061 92.3568 67.9061 90.8448C67.9061 89.1888 67.3661 87.8928 66.2861 86.9568C65.2421 86.0208 63.7661 85.5528 61.8581 85.5528C59.9141 85.5528 58.4201 86.0208 57.3761 86.9568C56.3321 87.8928 55.8101 89.1888 55.8101 90.8448C55.8101 92.3928 56.3321 93.6528 57.3761 94.6248C58.4561 95.5608 59.9501 96.0288 61.8581 96.0288ZM61.8581 113.255C64.1621 113.255 65.9081 112.697 67.0961 111.581C68.2841 110.429 68.8781 108.989 68.8781 107.261C68.8781 105.353 68.2481 103.859 66.9881 102.779C65.7641 101.699 64.0541 101.159 61.8581 101.159C59.6621 101.159 57.9161 101.699 56.6201 102.779C55.3601 103.859 54.7301 105.353 54.7301 107.261C54.7301 108.989 55.3241 110.429 56.5121 111.581C57.7361 112.697 59.5181 113.255 61.8581 113.255ZM94.955 119.033C92.183 119.033 89.789 118.547 87.773 117.575C85.793 116.603 84.227 115.271 83.075 113.579C81.959 111.851 81.311 109.907 81.131 107.747H87.881C88.205 109.295 88.997 110.591 90.257 111.635C91.517 112.643 93.083 113.147 94.955 113.147C96.971 113.147 98.609 112.409 99.869 110.933C101.165 109.457 101.813 107.621 101.813 105.425C101.813 103.157 101.165 101.357 99.869 100.025C98.609 98.6928 97.007 98.0268 95.063 98.0268C93.443 98.0268 92.039 98.4228 90.851 99.2148C89.663 100.007 88.817 100.997 88.313 102.185H81.671L84.911 80.5848H105.863V86.6328H90.095L88.367 95.3808C89.159 94.5168 90.239 93.8148 91.607 93.2748C92.975 92.6988 94.505 92.4108 96.197 92.4108C98.897 92.4108 101.147 93.0228 102.947 94.2468C104.747 95.4348 106.115 97.0188 107.051 98.9988C107.987 100.943 108.455 103.067 108.455 105.371C108.455 107.999 107.879 110.339 106.727 112.391C105.611 114.443 104.027 116.063 101.975 117.251C99.959 118.439 97.619 119.033 94.955 119.033ZM121.583 99.1608C119.855 99.1608 118.289 98.7828 116.885 98.0268C115.481 97.2348 114.365 96.1188 113.537 94.6788C112.709 93.2388 112.295 91.5288 112.295 89.5488C112.295 87.5688 112.709 85.8588 113.537 84.4188C114.365 82.9788 115.481 81.8808 116.885 81.1248C118.289 80.3328 119.873 79.9368 121.637 79.9368C123.365 79.9368 124.913 80.3328 126.281 81.1248C127.685 81.8808 128.801 82.9788 129.629 84.4188C130.457 85.8588 130.871 87.5688 130.871 89.5488C130.871 91.5288 130.457 93.2388 129.629 94.6788C128.801 96.1188 127.685 97.2348 126.281 98.0268C124.877 98.7828 123.311 99.1608 121.583 99.1608ZM119.531 118.385L140.861 80.5848H147.611L126.281 118.385H119.531ZM121.583 94.3548C122.627 94.3548 123.527 93.9588 124.283 93.1668C125.039 92.3388 125.417 91.1328 125.417 89.5488C125.417 87.9648 125.039 86.7588 124.283 85.9308C123.563 85.1028 122.663 84.6888 121.583 84.6888C120.503 84.6888 119.585 85.1028 118.829 85.9308C118.109 86.7588 117.749 87.9648 117.749 89.5488C117.749 91.1328 118.109 92.3388 118.829 93.1668C119.585 93.9588 120.503 94.3548 121.583 94.3548ZM145.775 119.033C144.047 119.033 142.481 118.655 141.077 117.899C139.673 117.107 138.557 115.991 137.729 114.551C136.901 113.111 136.487 111.401 136.487 109.421C136.487 107.441 136.901 105.749 137.729 104.345C138.557 102.905 139.673 101.807 141.077 101.051C142.481 100.259 144.065 99.8628 145.829 99.8628C147.557 99.8628 149.105 100.259 150.473 101.051C151.877 101.807 152.993 102.905 153.821 104.345C154.649 105.749 155.063 107.441 155.063 109.421C155.063 111.401 154.649 113.111 153.821 114.551C152.993 115.991 151.877 117.107 150.473 117.899C149.105 118.655 147.539 119.033 145.775 119.033ZM145.775 114.227C146.855 114.227 147.755 113.831 148.475 113.039C149.231 112.211 149.609 111.005 149.609 109.421C149.609 107.837 149.231 106.631 148.475 105.803C147.755 104.975 146.855 104.561 145.775 104.561C144.695 104.561 143.777 104.975 143.021 105.803C142.301 106.631 141.941 107.837 141.941 109.421C141.941 111.005 142.301 112.211 143.021 113.039C143.777 113.831 144.695 114.227 145.775 114.227Z" fill="#9BF62D"/>
</svg>
