<svg width="558" height="369" viewBox="0 0 558 369" fill="none" xmlns="http://www.w3.org/2000/svg">
<path d="M454.391 271.938L483.531 303.747V161.597" stroke="#CCDDE2" stroke-width="3.34864" stroke-miterlimit="10"/>
<path d="M483.531 283.591L509.873 260.437" stroke="#CCDDE2" stroke-width="3.34864" stroke-miterlimit="10"/>
<path d="M483.535 225.927L465.57 205.818" stroke="#CCDDE2" stroke-width="3.34864" stroke-miterlimit="10"/>
<path d="M483.531 207.832L496.702 199.899" stroke="#CCDDE2" stroke-width="3.34864" stroke-miterlimit="10"/>
<path d="M483.533 169.846C483.533 167.436 474.551 150.404 474.551 150.404" stroke="#CCDDE2" stroke-width="3.34864" stroke-miterlimit="10"/>
<path d="M455.023 314.108L456.389 314.17L464.012 314.306C466.824 314.348 469.507 315.496 471.479 317.501C473.451 319.505 474.555 322.206 474.551 325.018V365.526" stroke="#CCDDE2" stroke-width="3.34864" stroke-miterlimit="10"/>
<path d="M431.453 262.821C432.744 261.338 434.128 259.787 435.629 258.212C486.72 204.15 432.54 229.214 438.465 211.1C444.389 192.987 462.781 195.372 466.772 178.976C469.372 168.295 466.11 156.798 466.877 145.931C467.402 138.604 470.423 129.375 475.161 123.691C481.227 116.426 488.956 121.708 492.965 128.553C499.761 140.198 496.715 154.456 496.672 167.232C496.672 177.116 499.674 185.636 507.675 191.665C514.847 197.083 523.224 201.976 526.208 211.045C529.451 220.929 513.389 218.341 508.83 222.319C500.589 229.522 517.479 246.122 522.155 250.879C533.893 262.815 556.646 284.412 540.689 304.057C530.674 316.363 520.815 313.676 509.917 314.115L504.048 314.041C502.459 314.012 500.879 314.301 499.403 314.891C497.926 315.481 496.583 316.36 495.451 317.477C494.319 318.593 493.421 319.924 492.811 321.393C492.2 322.861 491.89 324.436 491.897 326.026" stroke="#CCDDE2" stroke-width="3.34864" stroke-miterlimit="10"/>
<path d="M388.863 289.738L411.147 314.066V205.355" stroke="#CCDDE2" stroke-width="3.34864" stroke-miterlimit="10"/>
<path d="M417.425 293.14L411.148 298.65" stroke="#CCDDE2" stroke-width="3.34864" stroke-miterlimit="10"/>
<path d="M411.146 254.555L397.406 239.179" stroke="#CCDDE2" stroke-width="3.34864" stroke-miterlimit="10"/>
<path d="M411.148 240.716L421.218 234.649" stroke="#CCDDE2" stroke-width="3.34864" stroke-miterlimit="10"/>
<path d="M411.147 211.662C411.147 209.808 404.277 196.798 404.277 196.798" stroke="#CCDDE2" stroke-width="3.34864" stroke-miterlimit="10"/>
<path d="M431.456 262.82C420.051 276.028 416.53 285.845 417.426 293.141C419.675 310.883 448.401 313.688 455.024 314.108" stroke="#CCDDE2" stroke-width="3.34864" stroke-miterlimit="10"/>
<path d="M404.272 361.312V330.337C404.274 328.191 403.434 326.129 401.932 324.597C400.431 323.063 398.387 322.181 396.241 322.139L390.403 322.046C390.403 322.046 335.421 320.576 374.527 279.24C413.632 237.905 372.154 257.075 376.701 243.218C381.248 229.361 395.284 231.196 398.323 218.68C400.306 210.5 397.817 201.703 398.416 193.4C398.805 187.803 401.116 180.736 404.736 176.411C409.388 170.851 415.287 174.898 418.364 180.118C423.584 189.033 421.231 199.949 421.2 209.703C421.169 217.253 423.479 223.783 429.608 228.404C435.1 232.549 441.494 236.286 443.773 243.23C446.244 250.779 433.957 248.79 430.479 251.848C427.476 254.474 428.823 258.706 431.449 262.832" stroke="#CCDDE2" stroke-width="3.34864" stroke-miterlimit="10"/>
<path d="M417.562 331.116C417.562 329.904 417.803 328.705 418.27 327.588C418.738 326.471 419.422 325.457 420.284 324.606C421.146 323.756 422.169 323.085 423.292 322.632C424.416 322.181 425.618 321.956 426.829 321.973L431.302 322.047C439.648 321.707 447.179 323.758 454.833 314.349L455.031 314.108" stroke="#CCDDE2" stroke-width="3.34864" stroke-miterlimit="10"/>
<path d="M558 366.402H2" stroke="white" stroke-width="3.34864" stroke-miterlimit="10"/>
<path d="M55.8202 362.702C51.817 361.899 47.8818 360.941 44.0454 359.823C28.292 355.214 9.96874 347.35 3.70447 330.818C2.13556 326.548 1.64177 321.956 2.26665 317.45C2.89154 312.943 4.61588 308.659 7.28758 304.977C10.1145 301.038 14.0951 298.074 18.6794 296.495C28.6503 293.276 39.6839 298.299 47.0972 305.718C54.5105 313.138 59.2489 322.707 65.0127 331.442C59.774 319.705 54.4611 307.652 53.7383 294.827C53.1699 284.831 55.8943 273.995 62.7826 266.483C69.1271 259.57 83.96 254.127 92.6954 259.236C98.4592 262.591 100.757 269.739 101.746 276.306C104.458 294.339 100.974 312.662 97.5079 330.559C99.8369 320.99 102.339 311.328 107.083 302.697C111.828 294.067 119.112 286.431 128.428 283.237C134.958 281.001 142.704 281.242 148.197 285.455C153.299 289.384 155.579 296.019 156.277 302.425C157.457 313.156 154.924 324.048 150.581 333.932C134.346 370.801 89.3903 369.405 55.8202 362.702Z" stroke="#CCDDE2" stroke-width="3.34864" stroke-miterlimit="10"/>
<path d="M92.3984 344.423C92.3984 344.423 117.388 351.367 126.216 316.623" stroke="#CCDDE2" stroke-width="3.34864" stroke-miterlimit="10"/>
<path d="M81.2815 285.135C74.3376 300.882 81.2815 348.148 81.2815 348.148" stroke="#CCDDE2" stroke-width="3.34864" stroke-miterlimit="10"/>
<path d="M58.12 343.355C57.076 343.176 47.0556 341.774 38.5117 337.845C31.8892 334.805 26.1562 330.252 26.1562 323.58" stroke="#CCDDE2" stroke-width="3.34864" stroke-miterlimit="10"/>
<path d="M40.5175 323.58C40.5175 323.58 30.7442 334.972 38.5097 337.845" stroke="#CCDDE2" stroke-width="3.34864" stroke-miterlimit="10"/>
<path d="M34.0312 348.21C35.4212 346.276 42.6801 350.156 47.3752 341.037" stroke="#CCDDE2" stroke-width="3.34864" stroke-miterlimit="10"/>
<path d="M78.1891 305.978C75.718 304.125 69.2375 305.978 68.3047 291.151" stroke="#CCDDE2" stroke-width="3.34864" stroke-miterlimit="10"/>
<path d="M79.2734 319.873C79.2734 319.873 90.0845 315.975 90.0845 307.518" stroke="#CCDDE2" stroke-width="3.34864" stroke-miterlimit="10"/>
<path d="M102.508 344.622C102.508 344.622 108.148 330.067 110.465 323.58" stroke="#CCDDE2" stroke-width="3.34864" stroke-miterlimit="10"/>
<path d="M119.996 330.715C119.996 330.715 126.174 335.627 133.587 327.75" stroke="#CCDDE2" stroke-width="3.34864" stroke-miterlimit="10"/>
<path d="M119.993 323.58C119.993 323.58 115.996 321.85 117.85 311.842" stroke="#CCDDE2" stroke-width="3.34864" stroke-miterlimit="10"/>
<path d="M384 285.482C382.623 282.282 381.208 279.05 379.756 275.85C379.713 275.768 379.678 275.68 379.651 275.592C376.506 268.635 373.251 261.765 370.02 255.346C369.981 255.306 369.951 255.258 369.933 255.205C351.19 223.5 323.989 209.217 315.569 205.369C313.926 204.634 312.999 204.268 312.999 204.268C299.717 198.48 287.306 193.958 276.902 190.548C277.044 190.462 277.18 190.369 277.341 190.283C278.811 189.442 281.573 187.873 284.754 186.069L286.305 185.18C289.628 183.289 293.267 181.232 296.393 179.446C296.881 179.168 297.375 178.885 297.845 178.625C300.118 177.334 302.003 176.246 303.139 175.585C312.443 170.198 322.037 164.534 330.321 157.596C331.248 156.824 332.138 156.039 333.027 155.235C333.917 154.432 334.757 153.611 335.597 152.764C339.853 148.596 343.475 143.825 346.347 138.605C352.605 127.053 353.711 112.924 350.14 100.34C350.022 99.9202 349.899 99.5001 349.775 99.1048C349.528 98.2831 349.269 97.517 348.991 96.7634C348.849 96.3989 348.706 96.0468 348.552 95.7008C348.466 95.4728 348.366 95.2504 348.256 95.033C348.151 94.7692 348.027 94.5134 347.885 94.2669C347.564 93.6152 347.203 92.9838 346.804 92.3765C344.13 94.5783 340.738 95.7181 337.278 95.5766C334.061 95.4104 330.945 94.4029 328.24 92.6552C316.286 85.3654 312.838 68.951 312.282 63.9038C312.044 63.9297 311.805 63.9396 311.566 63.9347C310.956 63.9408 310.349 63.8593 309.762 63.6937L307.124 62.9586L306.963 62.9215C303.578 62.0196 300.149 61.2492 296.677 60.611C295.225 60.3268 293.737 60.0859 292.273 59.8573C291.747 59.7708 291.222 59.6967 290.697 59.6287C288.51 59.2951 286.311 59.011 284.105 58.8071C283.76 58.7577 283.389 58.7206 283.024 58.6835C281.325 58.5291 279.614 58.3685 277.903 58.2635C275.593 58.109 273.27 58.004 270.947 57.9175C266.276 57.7754 261.594 57.8125 256.892 57.9855C198.333 60.1724 139.051 85.7854 114.229 98.036C113.969 98.1719 113.704 98.2949 113.444 98.4369C107.032 101.619 102.992 103.837 102.009 104.399L101.768 104.534C93.521 108.777 85.7537 113.895 78.6017 119.8C73.9307 123.65 69.8015 128.113 66.3265 133.07L66.1905 133.28C61.6808 139.588 67.2037 147.581 75.0495 147.439C78.5461 147.371 82.4999 145.691 86.2374 141.564C91.643 135.64 96.1219 133.823 99.3837 133.644C100.202 133.608 101.017 133.766 101.762 134.106C102.507 134.445 103.161 134.957 103.669 135.599C104.178 136.241 104.526 136.994 104.687 137.797C104.847 138.6 104.815 139.43 104.592 140.217L103.739 143.263C103.498 144.128 103.45 145.035 103.599 145.92C103.747 146.805 104.089 147.647 104.598 148.385C105.108 149.124 105.774 149.741 106.549 150.194C107.324 150.646 108.189 150.923 109.083 151.004C109.264 151.013 109.445 151.013 109.627 151.004C110.893 151.003 112.128 150.609 113.162 149.877C114.196 149.144 114.976 148.109 115.397 146.915C117.216 141.693 120.224 136.966 124.183 133.106C128.143 129.246 132.945 126.36 138.211 124.675L144.729 122.574C168.494 114.935 193.478 111.811 218.392 113.363C217.379 115.025 213.883 121.808 221.259 125.41C221.383 125.459 221.506 125.527 221.642 125.582L218.306 128.869L216.681 130.494L215.662 131.47C214.896 132.347 214.124 133.237 213.358 134.133C213.148 134.374 212.919 134.639 212.709 134.899C210.139 137.988 207.588 141.262 205.092 144.74L204.721 144.481C204.721 144.481 201.014 151.171 180.578 151.4C179.183 151.594 177.885 152.226 176.872 153.204C176.118 154.022 175.637 155.053 175.494 156.156C175.437 156.566 175.437 156.982 175.494 157.391C175.494 157.496 175.531 157.62 175.543 157.737C175.559 157.85 175.584 157.962 175.618 158.072C175.745 158.581 175.931 159.075 176.174 159.542C176.401 159.971 176.659 160.384 176.946 160.778C181.771 164.639 191.037 167.487 191.037 167.487C191.408 166.751 191.809 166.035 192.193 165.318C191.742 166.208 191.235 167.289 190.673 168.586C192.736 169.235 195.096 169.859 197.715 170.44C195.479 169.945 193.051 169.407 190.617 168.703C190.558 168.691 190.5 168.675 190.444 168.654C190.434 168.658 190.423 168.658 190.413 168.654C186.021 167.382 181.69 165.565 178.558 162.538C178.412 162.423 178.278 162.295 178.157 162.155L178.052 162.05C177.63 161.632 177.239 161.186 176.878 160.715C175.537 159.597 174.555 158.429 174.295 157.206C174.135 161.03 175.34 169.321 187.108 175.246C184.94 179.7 182.876 184.37 180.881 189.282C145.556 276.16 52.4882 211.601 52.4882 211.601L40.7072 202.774L35.1101 210.243L39.935 204.016L54.286 212.813L34.6406 238.333C46.0757 248.836 147.163 337.079 226.405 246.809C226.492 246.723 232.583 239.346 232.626 239.26C233.621 239.624 234.671 239.995 235.715 240.36C315.668 267.913 316.267 258.893 346.662 307.345C360.37 329.178 368.024 341.243 372.275 347.902L409.409 348.236C406.815 341.422 394.774 310.36 384 285.482ZM224.793 176.494C227.06 177 229.265 177.525 231.52 178.063C229.265 177.525 227.06 177.019 224.793 176.494ZM235.295 115.278L234.615 115.136L233.998 115.013L233.281 114.87L232.842 114.784C237.056 115.346 241.25 116.02 245.414 116.903C245.465 116.894 245.517 116.894 245.569 116.903C248.769 117.516 251.95 118.233 255.113 119.052L255.41 119.126C255.255 119.213 255.113 119.299 254.959 119.367C253.871 119.145 252.704 118.898 251.493 118.632H251.462C245.612 117.446 238.878 116.044 235.276 115.278H235.295ZM262.699 186.174C261.464 185.828 260.228 185.513 259.098 185.198C255.478 184.215 252.302 183.345 249.399 182.591C250.949 182.962 253.346 183.555 256.423 184.395C258.468 184.933 260.809 185.63 263.435 186.353C263.521 186.384 263.608 186.403 263.694 186.44C263.904 186.489 264.133 186.564 264.343 186.632C263.787 186.471 263.231 186.335 262.699 186.174Z" fill="white"/>
<path d="M372.883 347.876L423.114 348.345C425.585 348.345 438.435 356.173 435.081 361.269C432.264 365.538 435.081 366.385 435.081 366.385H385.399L372.883 347.876Z" fill="#8E85F4"/>
<path d="M218.889 128.897L217.265 130.522L215.918 131.832C216.32 131.381 216.709 130.924 217.11 130.491C217.512 130.059 217.771 129.738 218.105 129.367C218.331 129.158 218.599 128.998 218.889 128.897Z" fill="#353642"/>
<path d="M469.971 80.792C469.798 80.6005 469.65 80.4275 469.483 80.2545C465.474 75.8436 467.136 70.4504 470.923 66.3174C473.845 63.1112 478.694 59.8246 483.229 59.8369C487.658 59.8369 492.539 63.6795 495.189 66.9599C499.723 72.5693 501.552 79.717 496.956 85.833C491.776 92.6891 485.857 98.954 479.306 104.515C464.603 117.173 445.581 128.206 427.091 135.644C406.643 143.867 382.549 145.442 360.612 142.489C356.485 141.933 350.895 139.95 346.953 138.616" stroke="white" stroke-width="3.34864" stroke-miterlimit="10"/>
<path d="M475.094 84.8447L475.113 84.8701" stroke="white" stroke-width="3.34864" stroke-miterlimit="10"/>
<path d="M487.45 86.0745C485.016 88.8916 479.493 91.7334 476.497 87.9279C474.606 85.5247 476.126 82.442 477.658 80.2983C480.323 76.4564 484.349 73.7709 488.92 72.7861" stroke="white" stroke-width="3.34864" stroke-miterlimit="10"/>
<path d="M479.31 68.875C475.195 70.438 470.315 74.33 469.895 79.093C469.567 82.8306 473.397 85.5674 476.357 82.6823" stroke="white" stroke-width="3.34864" stroke-miterlimit="10"/>
<path d="M365.074 60.9619C365.661 65.3481 369.399 68.2208 373.266 67.5845" stroke="white" stroke-width="3.34864" stroke-miterlimit="10"/>
<path d="M346.953 138.616C337.792 155.574 320.315 166.008 303.795 175.59C299.582 178.018 283.409 187.179 277.503 190.552C274.253 189.453 271.189 188.452 268.378 187.544C268.292 187.544 268.217 187.495 268.131 187.476C256.195 183.701 248.43 181.762 247.312 181.477L259.667 185.184C230.243 177.264 228.043 177.091 198.291 170.45C195.579 169.832 193.17 169.214 191.051 168.529C191.613 167.441 192.187 166.36 192.768 165.31C192.799 165.242 192.836 165.187 192.855 165.137C192.941 164.976 193.046 164.804 193.114 164.643C193.293 164.328 193.466 164.025 193.621 163.716L193.991 163.098C194.041 163.006 194.096 162.919 194.146 162.833C194.195 162.746 194.183 162.783 194.22 162.709C195.073 161.171 195.95 159.67 196.839 158.199C199.687 153.412 202.64 148.933 205.649 144.757C208.993 140.127 212.391 135.833 215.842 131.876L215.892 131.82L217.238 130.511L218.863 128.886L233.214 114.745C233.214 114.745 246.743 117.544 255.485 119.397C258.401 117.985 261.186 116.317 263.806 114.411C274.438 106.627 284.409 90.2625 282.605 76.5787C281.018 64.6061 268.254 58.589 257.277 57.965C274.389 57.3164 291.434 58.6631 307.533 62.9072C307.586 62.9103 307.638 62.9233 307.687 62.9443L310.331 63.6795C311.149 63.9056 312.002 63.9772 312.846 63.8895C313.408 68.9429 316.849 85.3573 328.809 92.6409C336.778 97.4843 343.438 95.6 347.386 92.3629C348.912 94.8291 350.04 97.5207 350.728 100.338C354.311 112.923 353.211 127.045 346.953 138.616Z" fill="#353642"/>
<path d="M54.8978 212.811L28.7535 246.788C28.7535 246.788 18.1587 249.568 14.1184 246.436L10.0781 243.298L40.5345 204.057L54.8978 212.811Z" fill="#8E85F4"/>
<path d="M114.818 98.0166L114.027 98.4181" stroke="white" stroke-width="3.34864" stroke-miterlimit="10"/>
<path d="M102.594 104.385L102.359 104.514" stroke="white" stroke-width="3.34864" stroke-miterlimit="10"/>
<path d="M233.234 239.258L227.007 246.813C142.915 342.618 34.1797 237.355 34.1797 237.355L39.1219 230.652" stroke="white" stroke-width="3.34864" stroke-miterlimit="10"/>
<path d="M247.906 182.102C247.906 182.102 277.634 188.582 313.632 204.274C313.632 204.274 314.552 204.626 316.195 205.373" stroke="white" stroke-width="3.34864" stroke-miterlimit="10"/>
<path d="M370.527 255.209C370.527 255.252 370.571 255.277 370.589 255.32C373.832 261.739 377.101 268.621 380.233 275.596C380.276 275.682 380.301 275.769 380.344 275.855C381.789 279.055 383.217 282.28 384.594 285.48C396.758 313.595 410.541 349.599 410.541 349.599" stroke="white" stroke-width="3.34864" stroke-miterlimit="10"/>
<path d="M370.617 255.34C370.58 255.303 370.55 255.258 370.53 255.21C351.787 223.5 324.592 209.21 316.197 205.374C314.553 204.627 313.633 204.274 313.633 204.274" stroke="white" stroke-width="3.34864" stroke-miterlimit="10"/>
<path d="M194.251 162.721C194.251 162.721 161.114 214.435 236.328 240.382C316.281 267.934 316.874 258.915 347.275 307.361C366.185 337.478 373.573 349.024 376.421 353.41L378.219 356.128L385.398 366.408H435.061V361.293C435.061 358.193 433.83 355.22 431.637 353.028C429.445 350.836 426.473 349.605 423.373 349.605H403.387" stroke="white" stroke-width="3.34864" stroke-miterlimit="10"/>
<path d="M53.0898 211.607L41.3087 202.785L10.6484 243.67L15.5907 247.376C16.5437 248.091 17.6291 248.608 18.7838 248.9C19.9385 249.192 21.1397 249.252 22.3177 249.076C23.4957 248.9 24.627 248.492 25.6462 247.876C26.6654 247.26 27.5522 246.447 28.2551 245.486L34.1919 237.35" stroke="white" stroke-width="3.34864" stroke-miterlimit="10"/>
<path d="M346.719 91.3245C356.603 99.1085 371.121 101.326 380.258 102.667C381.623 102.865 383.007 102.988 384.385 103.13C397.072 104.425 409.886 103.59 422.298 100.659C431.352 98.5321 440.088 95.2257 448.281 90.8241C455.448 86.9444 458.666 80.0933 460.637 72.1919L464.344 55.7466C464.908 54.4641 465.895 53.4133 467.14 52.7696C468.385 52.1265 469.813 51.9294 471.185 52.2111C472.558 52.4928 473.793 53.2366 474.684 54.3183C475.575 55.4001 476.068 56.7548 476.081 58.156C476.076 58.8664 475.948 59.5707 475.705 60.2379L474.92 62.4063" stroke="white" stroke-width="3.34864" stroke-linejoin="round"/>
<path d="M102.592 104.385C94.2601 108.67 86.4106 113.836 79.1782 119.792C74.5011 123.638 70.3725 128.107 66.9092 133.074L66.7609 133.284C60.2557 142.403 74.6376 154.993 86.8387 141.575C92.2319 135.632 96.6923 133.822 99.9788 133.649C100.796 133.616 101.608 133.776 102.351 134.117C103.094 134.458 103.745 134.97 104.251 135.612C104.757 136.253 105.105 137.005 105.264 137.807C105.423 138.608 105.391 139.436 105.168 140.222L104.316 143.268C104.075 144.131 104.027 145.038 104.175 145.922C104.323 146.806 104.663 147.647 105.173 148.385C105.682 149.124 106.348 149.74 107.122 150.192C107.896 150.645 108.761 150.921 109.653 151.002C111.011 151.125 112.371 150.791 113.517 150.052C114.664 149.313 115.53 148.213 115.979 146.925C117.798 141.705 120.804 136.979 124.761 133.119C128.718 129.26 133.518 126.373 138.781 124.685L145.324 122.597C186.953 109.236 231.806 109.828 273.068 124.283L288.753 129.8" stroke="white" stroke-width="3.34864" stroke-miterlimit="10"/>
<path d="M75.6384 147.432C75.6384 147.432 59.6627 143.033 85.8688 125.772" stroke="white" stroke-width="3.34864" stroke-miterlimit="10"/>
<path d="M277.961 190.281C282.52 187.674 299.274 178.216 303.79 175.59C320.316 166.009 337.805 155.574 346.967 138.616C353.212 127.052 354.318 112.923 350.748 100.314C349.778 96.8855 348.802 94.2043 346.713 91.3008" stroke="white" stroke-width="3.34864" stroke-linejoin="round"/>
<path d="M405.774 22.7412C405.121 25.7232 403.55 28.4254 401.28 30.4671C399.01 32.5089 396.157 33.7864 393.122 34.1207C392.845 32.8999 392.275 31.7651 391.46 30.8156C388.001 26.8803 386.691 34.4172 375.726 29.2402C360.534 22.0555 354.906 26.4602 354.906 26.4602C354.418 26.8494 354.542 30.309 354.486 30.9206C354.159 34.5037 353.825 38.0683 353.473 41.6514C353.263 43.8383 353.053 46.0067 352.855 48.1751C352.644 47.8112 352.411 47.4603 352.157 47.1249C350.687 42.3 346.597 36.6535 341.352 39.2235C340.294 39.7659 339.38 40.5511 338.684 41.5155C335.273 46.1797 338.016 50.5659 341.772 53.7845C342.704 54.7835 343.739 55.6805 344.861 56.4595C344.287 57.6951 341.927 62.7176 341.927 62.7361C341.68 63.2427 332.889 53.6795 332.228 52.6293C331.213 50.0501 330.643 47.3183 330.541 44.5488C330.171 33.1693 334.544 19.8376 343.632 13.1162C345.887 11.4606 346.678 9.88523 346.783 7.67977C346.803 7.56857 346.853 7.46541 346.927 7.38078C347.002 7.29676 347.098 7.23373 347.206 7.20037C347.313 7.16639 347.428 7.16269 347.538 7.18987C347.647 7.21643 347.747 7.27265 347.827 7.35234C350.786 10.6204 357.934 10.1447 357.934 10.1447C382.645 3.43565 391.201 14.3085 396.236 16.1619C398.29 16.8995 400.538 16.8995 402.593 16.1619C402.727 16.8451 403.047 17.479 403.516 17.9942C403.986 18.5094 404.587 18.8863 405.255 19.084L405.15 20.233C405.061 21.1158 405.282 22.0023 405.774 22.7412Z" fill="#8E85F4"/>
<path d="M393.106 34.137C396.14 33.8028 398.993 32.5252 401.263 30.4835C403.533 28.4423 405.105 25.7402 405.758 22.7576C406.017 21.6153 406.17 20.4508 406.215 19.2795H406.023C405.756 19.2646 405.492 19.2128 405.239 19.125C404.57 18.9286 403.969 18.5517 403.501 18.0365C403.033 17.5213 402.714 16.8868 402.582 16.2029C402.495 15.8249 402.47 15.4344 402.508 15.0477L403.033 9.41975C403.033 9.41975 398.61 12.8484 393.594 10.9951C388.577 9.14174 380.002 -1.73114 355.291 4.97792C355.291 4.97792 348.144 5.4536 345.191 2.18555C345.111 2.10463 345.01 2.04656 344.9 2.01876C344.79 1.99096 344.674 1.99406 344.566 2.02804C344.457 2.06201 344.36 2.12502 344.284 2.21089C344.21 2.29615 344.16 2.40118 344.141 2.51299C344.035 4.71846 343.251 6.29379 340.996 7.94943C331.896 14.6276 327.572 27.9654 327.918 39.3449C328.152 44.0839 329.644 48.6752 332.242 52.6457C332.903 53.6959 341.694 63.2591 341.941 62.7525C341.941 62.7525 344.301 57.7361 344.876 56.4759L345.018 56.1979L344.74 56.0187C343.704 55.3521 342.716 54.6151 341.781 53.8132C338.074 50.5946 335.312 46.2084 338.692 41.5442C339.388 40.5805 340.302 39.7946 341.361 39.2522C346.605 36.6823 350.695 42.3411 352.165 47.1536C352.448 48.0747 352.63 49.023 352.709 49.983C352.759 49.3653 352.814 48.8154 352.864 48.2224C353.055 46.054 353.265 43.8979 353.481 41.6986C353.833 38.1155 354.167 34.5509 354.494 30.9678C354.55 30.3501 354.427 26.8967 354.915 26.5075C354.915 26.5075 360.543 22.1027 375.734 29.2875C386.699 34.4645 388.009 26.9276 391.468 30.8628C392.283 31.8129 392.854 32.9478 393.13 34.1679C393.216 34.559 393.274 34.955 393.303 35.354C393.313 35.4072 393.313 35.4615 393.303 35.5147C393.371 36.3857 393.408 37.263 393.445 38.1155C393.686 46.3876 392.951 55.0365 389.862 62.7834C386.1 72.1674 375.839 81.5577 364.898 77.4309C361.488 76.1397 358.393 74.0022 355.563 71.735" stroke="white" stroke-width="3.34864" stroke-miterlimit="10"/>
<path d="M333.485 54.1787L315.076 63.3033C313.59 63.9767 311.914 64.1058 310.343 63.6678L307.718 62.945C307.663 62.9252 307.608 62.911 307.551 62.9017C236.358 44.1213 146.861 82.1702 114.804 98.0162L114.014 98.4178C107.595 101.612 103.567 103.83 102.579 104.386L102.344 104.515" stroke="white" stroke-width="3.34864" stroke-miterlimit="10"/>
<path d="M312.79 64.3164C312.549 65.101 314.786 84.7834 327.913 92.7836C336.377 97.9359 343.259 95.02 346.718 91.3133C347.092 90.9093 347.443 90.4842 347.769 90.0407V89.9974" stroke="white" stroke-width="3.34864" stroke-miterlimit="10"/>
<path d="M346.715 91.3266L361.072 74.1523" stroke="white" stroke-width="3.34864" stroke-miterlimit="10"/>
<path d="M268.381 187.544C268.295 187.544 268.221 187.494 268.134 187.476L259.695 185.203C230.27 177.283 228.071 177.11 198.319 170.469C195.607 169.851 193.198 169.233 191.079 168.547C168.9 161.498 177.012 151.423 180.014 151.423C201.433 151.423 205.343 144.485 205.343 144.485L205.708 144.745L268.381 187.544Z" fill="#353642"/>
<path d="M368.539 50.2744C369.795 50.2744 370.812 49.2569 370.812 48.001C370.812 46.7456 369.795 45.7275 368.539 45.7275C367.284 45.7275 366.266 46.7456 366.266 48.001C366.266 49.2569 367.284 50.2744 368.539 50.2744Z" fill="white"/>
<path d="M386 50.2744C387.255 50.2744 388.273 49.2569 388.273 48.001C388.273 46.7456 387.255 45.7275 386 45.7275C384.744 45.7275 383.727 46.7456 383.727 48.001C383.727 49.2569 384.744 50.2744 386 50.2744Z" fill="white"/>
<path d="M379.276 47.0547C379.276 47.0547 381.036 54.8572 381.24 55.6418C381.907 58.1994 376.848 57.3901 376.848 57.3901" stroke="white" stroke-width="3.34864" stroke-miterlimit="10"/>
<path d="M376.298 37.1341C376.298 37.1341 368.822 32.4143 363.059 37.5604" stroke="white" stroke-width="3.34864" stroke-miterlimit="10"/>
<path d="M369.169 55.2597C373.642 55.2597 377.268 51.6339 377.268 47.1606C377.268 42.6879 373.642 39.0615 369.169 39.0615C364.697 39.0615 361.07 42.6879 361.07 47.1606C361.07 51.6339 364.697 55.2597 369.169 55.2597Z" stroke="white" stroke-width="3.34864" stroke-miterlimit="10"/>
<path d="M389.654 54.58C394.127 54.58 397.753 50.9536 397.753 46.4809C397.753 42.0076 394.127 38.3818 389.654 38.3818C385.181 38.3818 381.555 42.0076 381.555 46.4809C381.555 50.9536 385.181 54.58 389.654 54.58Z" stroke="white" stroke-width="3.34864" stroke-miterlimit="10"/>
<path d="M389.664 40.9838C391.122 40.9597 392.53 41.5164 393.578 42.5308C394.626 43.5451 395.227 44.9339 395.251 46.3925C395.275 47.8504 394.719 49.2584 393.705 50.3061C392.69 51.3545 391.301 51.9562 389.843 51.9803H389.658C388.226 51.9611 386.858 51.3854 385.843 50.3747C384.829 49.364 384.249 47.9975 384.225 46.5655C384.202 45.1341 384.738 43.7496 385.719 42.7062C386.699 41.6628 388.048 41.0425 389.478 40.9777H389.664V40.9838ZM389.664 39.668H389.435C388.541 39.6822 387.658 39.8731 386.837 40.2289C386.016 40.5848 385.274 41.0981 384.652 41.7412C384.03 42.3837 383.54 43.143 383.211 43.9751C382.882 44.8067 382.72 45.6956 382.735 46.5902C382.75 47.4841 382.94 48.3669 383.296 49.1879C383.652 50.009 384.166 50.7515 384.809 51.3736C385.452 51.9957 386.21 52.485 387.042 52.8137C387.875 53.1423 388.763 53.3042 389.658 53.29H389.886C391.688 53.2603 393.405 52.5159 394.658 51.2204C395.913 49.9256 396.6 48.1853 396.57 46.3832C396.541 44.5805 395.796 42.8637 394.502 41.6103C393.206 40.3568 391.466 39.6692 389.664 39.6989V39.668Z" fill="white"/>
<path d="M377.262 46.895L381.561 46.7529" stroke="white" stroke-width="3.34864" stroke-miterlimit="10"/>
<path opacity="0.53" d="M369.17 54.0174C372.957 54.0174 376.027 50.947 376.027 47.1601C376.027 43.3731 372.957 40.3027 369.17 40.3027C365.383 40.3027 362.312 43.3731 362.312 47.1601C362.312 50.947 365.383 54.0174 369.17 54.0174Z" fill="#141416"/>
<path opacity="0.53" d="M389.654 53.3387C393.441 53.3387 396.512 50.269 396.512 46.4814C396.512 42.6944 393.441 39.624 389.654 39.624C385.867 39.624 382.797 42.6944 382.797 46.4814C382.797 50.269 385.867 53.3387 389.654 53.3387Z" fill="#141416"/>
<path d="M53.0898 211.62C53.0898 211.62 146.152 276.171 181.483 189.293C184.493 181.88 187.681 174.981 191.046 168.598" stroke="white" stroke-width="3.34864" stroke-miterlimit="10"/>
<path d="M256.037 119.161L233.241 114.757C232.722 114.658 230.393 117.228 229.942 117.617C223.052 123.881 216.65 130.661 210.791 137.899C206.775 142.767 202.797 146.924 196.656 149.019C193.733 149.965 190.714 150.587 187.655 150.872C184.517 151.212 179.84 150.687 177.462 153.207C176.938 153.773 176.545 154.445 176.307 155.178C176.069 155.911 175.993 156.686 176.084 157.451C176.316 158.826 176.925 160.11 177.845 161.158C182.571 166.959 191.374 168.911 198.299 170.456C230.745 177.702 230.424 177.251 268.362 187.543" stroke="white" stroke-width="3.34864" stroke-miterlimit="10"/>
<path d="M217.265 130.524L215.918 131.834C216.32 131.383 216.709 130.926 217.11 130.493L217.265 130.524Z" fill="#353642"/>
<path d="M255.384 119.576C255.384 119.576 242.17 129.924 226.812 126.99C211.454 124.055 219.238 112.997 219.238 112.997C230.439 113.358 241.535 115.283 252.203 118.718" fill="white"/>
<path d="M175.156 155.074C175.156 155.074 171.888 167.282 187.709 175.245L191.657 167.485C191.657 167.485 171.956 161.431 175.156 155.074Z" fill="white"/>
<path d="M289.785 18.0889H246.695" stroke="white" stroke-width="3.34864" stroke-miterlimit="10"/>
<path d="M249.883 28.5762H225.543" stroke="white" stroke-width="3.34864" stroke-miterlimit="10"/>
<path d="M49.8711 273.304C49.8711 273.304 80.377 307.393 145.898 307.393" stroke="white" stroke-width="3.34864" stroke-miterlimit="10"/>
<path d="M331.832 302.406L346.955 325.746" stroke="white" stroke-width="3.34864" stroke-miterlimit="10"/>
<path d="M95.1961 91.3242C78.8064 97.78 63.3373 107.424 54.8984 123.418" stroke="white" stroke-width="3.34864" stroke-miterlimit="10"/>
<path d="M502.043 95.8231C507.689 90.1889 512.391 83.1092 513.046 73.9229" stroke="white" stroke-width="3.34864" stroke-miterlimit="10"/>
</svg>
