<svg width="33" height="33" viewBox="0 0 33 33" fill="none" xmlns="http://www.w3.org/2000/svg">
<path fill-rule="evenodd" clip-rule="evenodd" d="M4.70631 13.07C7.98305 20.2051 13.8139 25.8777 21.0625 28.9515L21.0854 28.9612L22.4857 29.5854C24.2689 30.3798 26.3648 29.8156 27.5081 28.2333L29.8444 24.9997C29.9871 24.8022 29.9503 24.5276 29.7607 24.3746L25.682 21.0841C25.4792 20.9205 25.1811 20.9586 25.026 21.1679L23.4386 23.31C23.053 23.8302 22.3568 24.011 21.7669 23.744C16.3469 21.2911 11.9914 16.9357 9.53852 11.5156C9.27157 10.9257 9.45233 10.2295 9.97254 9.84396L12.1146 8.25655C12.3239 8.10144 12.362 7.80329 12.1984 7.60053L8.90748 3.52128C8.75453 3.33169 8.47999 3.29487 8.28249 3.43745L5.03145 5.7844C3.43867 6.93425 2.87775 9.0478 3.69076 10.8361L4.70522 13.0676C4.70558 13.0684 4.70595 13.0692 4.70631 13.07ZM19.9773 31.4784C12.1013 28.1351 5.76647 21.9696 2.20606 14.2151L2.20391 14.2104L1.18732 11.9742C-0.167693 8.9937 0.767175 5.47112 3.42181 3.55471L6.67284 1.20775C8.0554 0.20967 9.97715 0.467445 11.0478 1.79458L14.3387 5.87383C15.4837 7.29314 15.217 9.3802 13.7519 10.466L12.5245 11.3756C14.5978 15.3986 17.8839 18.6847 21.9069 20.758L22.8166 19.5306C23.9023 18.0655 25.9894 17.7988 27.4087 18.9438L31.4874 22.2342C32.8149 23.3052 33.0724 25.2277 32.0735 26.6103L29.7371 29.8438C27.8316 32.481 24.3385 33.4214 21.3665 32.0973L19.9773 31.4784Z" fill="white"/>
</svg>
