<svg width="201" height="200" viewBox="0 0 201 200" fill="none" xmlns="http://www.w3.org/2000/svg">
<g opacity="0.2">
<mask id="path-1-inside-1_980_1026" fill="white">
<path d="M200.5 100C200.5 155.228 155.728 200 100.5 200C45.2715 200 0.5 155.228 0.5 100C0.5 44.7715 45.2715 0 100.5 0C155.728 0 200.5 44.7715 200.5 100ZM13.5 100C13.5 148.049 52.4512 187 100.5 187C148.549 187 187.5 148.049 187.5 100C187.5 51.9512 148.549 13 100.5 13C52.4512 13 13.5 51.9512 13.5 100Z"/>
</mask>
<path d="M200.5 100C200.5 155.228 155.728 200 100.5 200C45.2715 200 0.5 155.228 0.5 100C0.5 44.7715 45.2715 0 100.5 0C155.728 0 200.5 44.7715 200.5 100ZM13.5 100C13.5 148.049 52.4512 187 100.5 187C148.549 187 187.5 148.049 187.5 100C187.5 51.9512 148.549 13 100.5 13C52.4512 13 13.5 51.9512 13.5 100Z" stroke="white" stroke-width="32" stroke-linecap="round" mask="url(#path-1-inside-1_980_1026)"/>
</g>
<mask id="path-2-inside-2_980_1026" fill="white">
<path d="M194 100C197.59 100 200.522 102.914 200.289 106.496C198.718 130.646 188.427 153.494 171.211 170.711C152.457 189.464 127.022 200 100.5 200C73.9784 200 48.543 189.464 29.7893 170.711C12.5727 153.494 2.28223 130.646 0.711045 106.496C0.477985 102.914 3.41015 100 7 100V100C10.5899 100 13.4747 102.914 13.7425 106.494C15.2911 127.193 24.2036 146.74 38.9817 161.518C55.2974 177.834 77.4262 187 100.5 187C123.574 187 145.703 177.834 162.018 161.518C176.796 146.74 185.709 127.193 187.257 106.494C187.525 102.914 190.41 100 194 100V100Z"/>
</mask>
<path d="M194 100C197.59 100 200.522 102.914 200.289 106.496C198.718 130.646 188.427 153.494 171.211 170.711C152.457 189.464 127.022 200 100.5 200C73.9784 200 48.543 189.464 29.7893 170.711C12.5727 153.494 2.28223 130.646 0.711045 106.496C0.477985 102.914 3.41015 100 7 100V100C10.5899 100 13.4747 102.914 13.7425 106.494C15.2911 127.193 24.2036 146.74 38.9817 161.518C55.2974 177.834 77.4262 187 100.5 187C123.574 187 145.703 177.834 162.018 161.518C176.796 146.74 185.709 127.193 187.257 106.494C187.525 102.914 190.41 100 194 100V100Z" stroke="#516BF1" stroke-width="32" stroke-linecap="round" mask="url(#path-2-inside-2_980_1026)"/>
<path d="M59.8856 119.033C57.1136 119.033 54.7196 118.547 52.7036 117.575C50.7236 116.603 49.1576 115.271 48.0056 113.579C46.8896 111.851 46.2416 109.907 46.0616 107.747H52.8116C53.1356 109.295 53.9276 110.591 55.1876 111.635C56.4476 112.643 58.0136 113.147 59.8856 113.147C61.9016 113.147 63.5396 112.409 64.7996 110.933C66.0956 109.457 66.7436 107.621 66.7436 105.425C66.7436 103.157 66.0956 101.357 64.7996 100.025C63.5396 98.6928 61.9376 98.0268 59.9936 98.0268C58.3736 98.0268 56.9696 98.4228 55.7816 99.2148C54.5936 100.007 53.7476 100.997 53.2436 102.185H46.6016L49.8416 80.5848H70.7936V86.6328H55.0256L53.2976 95.3808C54.0896 94.5168 55.1696 93.8148 56.5376 93.2748C57.9056 92.6988 59.4356 92.4108 61.1276 92.4108C63.8276 92.4108 66.0776 93.0228 67.8776 94.2468C69.6776 95.4348 71.0456 97.0188 71.9816 98.9988C72.9176 100.943 73.3856 103.067 73.3856 105.371C73.3856 107.999 72.8096 110.339 71.6576 112.391C70.5416 114.443 68.9576 116.063 66.9056 117.251C64.8896 118.439 62.5496 119.033 59.8856 119.033ZM94.2359 119.033C90.7439 119.033 87.7559 118.223 85.2719 116.603C82.7879 114.947 80.8619 112.661 79.4939 109.745C78.1619 106.793 77.4959 103.373 77.4959 99.4848C77.4959 95.6328 78.1619 92.2308 79.4939 89.2788C80.8619 86.3268 82.7879 84.0408 85.2719 82.4208C87.7559 80.7648 90.7439 79.9368 94.2359 79.9368C97.7279 79.9368 100.716 80.7648 103.2 82.4208C105.684 84.0408 107.592 86.3268 108.924 89.2788C110.292 92.2308 110.976 95.6328 110.976 99.4848C110.976 103.373 110.292 106.793 108.924 109.745C107.592 112.661 105.684 114.947 103.2 116.603C100.716 118.223 97.7279 119.033 94.2359 119.033ZM94.2359 112.823C97.0799 112.823 99.4019 111.635 101.202 109.259C103.002 106.883 103.902 103.625 103.902 99.4848C103.902 95.3448 103.002 92.0868 101.202 89.7108C99.4019 87.3348 97.0799 86.1468 94.2359 86.1468C91.3559 86.1468 89.0159 87.3348 87.2159 89.7108C85.4519 92.0868 84.5699 95.3448 84.5699 99.4848C84.5699 103.625 85.4519 106.883 87.2159 109.259C89.0159 111.635 91.3559 112.823 94.2359 112.823ZM123.772 99.1608C122.044 99.1608 120.478 98.7828 119.074 98.0268C117.67 97.2348 116.554 96.1188 115.726 94.6788C114.898 93.2388 114.484 91.5288 114.484 89.5488C114.484 87.5688 114.898 85.8588 115.726 84.4188C116.554 82.9788 117.67 81.8808 119.074 81.1248C120.478 80.3328 122.062 79.9368 123.826 79.9368C125.554 79.9368 127.102 80.3328 128.47 81.1248C129.874 81.8808 130.99 82.9788 131.818 84.4188C132.646 85.8588 133.06 87.5688 133.06 89.5488C133.06 91.5288 132.646 93.2388 131.818 94.6788C130.99 96.1188 129.874 97.2348 128.47 98.0268C127.066 98.7828 125.5 99.1608 123.772 99.1608ZM121.72 118.385L143.05 80.5848H149.8L128.47 118.385H121.72ZM123.772 94.3548C124.816 94.3548 125.716 93.9588 126.472 93.1668C127.228 92.3388 127.606 91.1328 127.606 89.5488C127.606 87.9648 127.228 86.7588 126.472 85.9308C125.752 85.1028 124.852 84.6888 123.772 84.6888C122.692 84.6888 121.774 85.1028 121.018 85.9308C120.298 86.7588 119.938 87.9648 119.938 89.5488C119.938 91.1328 120.298 92.3388 121.018 93.1668C121.774 93.9588 122.692 94.3548 123.772 94.3548ZM147.964 119.033C146.236 119.033 144.67 118.655 143.266 117.899C141.862 117.107 140.746 115.991 139.918 114.551C139.09 113.111 138.676 111.401 138.676 109.421C138.676 107.441 139.09 105.749 139.918 104.345C140.746 102.905 141.862 101.807 143.266 101.051C144.67 100.259 146.254 99.8628 148.018 99.8628C149.746 99.8628 151.294 100.259 152.662 101.051C154.066 101.807 155.182 102.905 156.01 104.345C156.838 105.749 157.252 107.441 157.252 109.421C157.252 111.401 156.838 113.111 156.01 114.551C155.182 115.991 154.066 117.107 152.662 117.899C151.294 118.655 149.728 119.033 147.964 119.033ZM147.964 114.227C149.044 114.227 149.944 113.831 150.664 113.039C151.42 112.211 151.798 111.005 151.798 109.421C151.798 107.837 151.42 106.631 150.664 105.803C149.944 104.975 149.044 104.561 147.964 104.561C146.884 104.561 145.966 104.975 145.21 105.803C144.49 106.631 144.13 107.837 144.13 109.421C144.13 111.005 144.49 112.211 145.21 113.039C145.966 113.831 146.884 114.227 147.964 114.227Z" fill="#516BF1"/>
</svg>
