<svg width="36" height="35" viewBox="0 0 36 35" fill="none" xmlns="http://www.w3.org/2000/svg">
<path fill-rule="evenodd" clip-rule="evenodd" d="M15.6237 5.61196C8.92897 6.3 3.70703 11.9569 3.70703 18.8334C3.70703 26.1742 9.65791 32.125 16.9987 32.125C23.8752 32.125 29.5321 26.9031 30.2201 20.2084H16.9987C16.2393 20.2084 15.6237 19.5928 15.6237 18.8334V5.61196ZM0.957031 18.8334C0.957031 9.9738 8.13913 2.7917 16.9987 2.7917C17.7581 2.7917 18.3737 3.40731 18.3737 4.1667V17.4584H31.6654C32.4248 17.4584 33.0404 18.074 33.0404 18.8334C33.0404 27.6929 25.8583 34.875 16.9987 34.875C8.13913 34.875 0.957031 27.6929 0.957031 18.8334Z" fill="white"/>
<path fill-rule="evenodd" clip-rule="evenodd" d="M23.4154 3.56838V12.4167H32.2637C31.2315 8.04529 27.7868 4.6006 23.4154 3.56838ZM22.4951 0.613053C29.1323 1.43902 34.393 6.69976 35.219 13.337C35.3441 14.3418 34.5112 15.1667 33.4987 15.1667H21.582C21.0758 15.1667 20.6654 14.7563 20.6654 14.25V2.33337C20.6654 1.32085 21.4903 0.488015 22.4951 0.613053Z" fill="white"/>
</svg>
