<svg width="40" height="40" viewBox="0 0 40 40" fill="none" xmlns="http://www.w3.org/2000/svg">
<path fill-rule="evenodd" clip-rule="evenodd" d="M20.0013 3.64551L15.9445 7.84293C15.5127 8.28969 14.918 8.54198 14.2967 8.54198H8.54296V14.2957C8.54296 14.917 8.29067 15.5117 7.84391 15.9435L3.64649 20.0003L7.84391 24.0571C8.29067 24.4889 8.54296 25.0836 8.54296 25.7049V31.4586H14.2967C14.918 31.4586 15.5127 31.7109 15.9445 32.1577L20.0013 36.3551L24.0581 32.1577C24.4899 31.7109 25.0846 31.4586 25.7059 31.4586H31.4596V25.7049C31.4596 25.0836 31.7119 24.4889 32.1587 24.0571L36.3561 20.0003L32.1587 15.9435C31.7119 15.5117 31.4596 14.917 31.4596 14.2957V8.54198H25.7059C25.0846 8.54198 24.4899 8.28969 24.0581 7.84293L20.0013 3.64551ZM18.3535 1.39339C19.2543 0.461318 20.7483 0.46132 21.6491 1.39339L25.9003 5.79198H31.918C33.1836 5.79198 34.2096 6.818 34.2096 8.08365V14.1013L38.6082 18.3525C39.5403 19.2533 39.5403 20.7473 38.6082 21.6481L34.2096 25.8994V31.917C34.2096 33.1826 33.1836 34.2086 31.918 34.2086H25.9003L21.6491 38.6072C20.7483 39.5393 19.2543 39.5393 18.3535 38.6072L14.1022 34.2086H8.08462C6.81897 34.2086 5.79296 33.1826 5.79296 31.917V25.8994L1.39436 21.6481C0.462297 20.7473 0.462295 19.2533 1.39436 18.3525L5.79296 14.1013V8.08365C5.79296 6.81799 6.81897 5.79198 8.08462 5.79198H14.1022L18.3535 1.39339Z" fill="white"/>
<path fill-rule="evenodd" clip-rule="evenodd" d="M11.293 20.0003C11.293 15.1908 15.1918 11.292 20.0013 11.292C24.8108 11.292 28.7096 15.1908 28.7096 20.0003C28.7096 24.8098 24.8108 28.7086 20.0013 28.7086C15.1918 28.7086 11.293 24.8098 11.293 20.0003ZM20.0013 14.042C16.7106 14.042 14.043 16.7096 14.043 20.0003C14.043 23.291 16.7106 25.9586 20.0013 25.9586C23.292 25.9586 25.9596 23.291 25.9596 20.0003C25.9596 16.7096 23.292 14.042 20.0013 14.042Z" fill="white"/>
</svg>
